<svg width="72" height="72" viewBox="0 0 72 72" fill="none" xmlns="http://www.w3.org/2000/svg">
<path d="M69.75 36L36 69.75L2.2511 36L36.0011 2.25L69.75 36Z" fill="black"/>
<path d="M43.978 32.2937C42.4334 32.2937 41.5784 33.4345 41.3973 34.6742H46.5813C46.4406 33.493 45.6059 32.2949 43.978 32.2949V32.2937ZM41.4355 36.364C41.6999 37.6645 42.7776 38.5802 44.284 38.5802C45.0996 38.5802 46.2752 38.2765 46.966 37.552L48.2879 39.0707C47.0909 40.3195 45.3033 40.675 44.0804 40.675C41.1104 40.675 38.7962 38.5307 38.7962 35.4932C38.7962 32.6414 40.927 30.2957 43.9375 30.2957C46.8456 30.2957 49 32.5232 49 35.4752V36.337H41.4366V36.3629L41.4355 36.364ZM34.1376 40.6727V34.2715C34.1376 33.1735 33.6483 32.5435 32.6324 32.5435C31.7166 32.5435 31.108 33.2016 30.7008 33.6764V40.6964H28.057V34.2839C28.057 33.1859 27.5901 32.5604 26.5743 32.5604C25.6596 32.5604 25.0274 33.2196 24.6426 33.6921V40.7121H22V30.4465H24.6437V31.7402C25.0938 31.2182 26.1085 30.3227 27.6925 30.3227C29.0954 30.3227 30.0505 30.9134 30.4791 32.1115C31.0686 31.2542 32.1666 30.3227 33.7529 30.3227C35.6654 30.3227 36.7791 31.459 36.7791 33.655V40.675H34.132L34.1376 40.6682V40.6727Z" fill="#FAFAFA"/>
</svg>