<svg width="40" height="40" viewBox="0 0 40 40" fill="none" xmlns="http://www.w3.org/2000/svg">
<path d="M10 19.3444V30H20.6556L18.4333 27.7778H12.2222V21.5666L10 19.3444Z" fill="black"/>
<path d="M38.7444 35.8778L35.5555 32.6445V35.5556H4.44441V30.9445H6.66663V29.1667H4.44441V21.7778H6.66663V20H4.44441V12.8889H6.66663V11.1111H4.44441V4.90003L22.1555 22.5111V19.3778L4.12219 1.43336C3.96677 1.27666 3.76822 1.16979 3.55183 1.12638C3.33545 1.08297 3.11103 1.10498 2.90721 1.18961C2.70338 1.27424 2.52937 1.41766 2.40737 1.60157C2.28537 1.78548 2.2209 2.00155 2.22219 2.22225V36.6667C2.22219 36.9614 2.33925 37.244 2.54762 37.4524C2.756 37.6607 3.03861 37.7778 3.3333 37.7778H37.9555C38.1762 37.7791 38.3923 37.7146 38.5762 37.5926C38.7601 37.4706 38.9035 37.2966 38.9882 37.0928C39.0728 36.889 39.0948 36.6645 39.0514 36.4482C39.008 36.2318 38.9011 36.0332 38.7444 35.8778Z" fill="black"/>
<path d="M26.6666 33.3333H31.111C31.7004 33.3333 32.2656 33.0992 32.6824 32.6825C33.0991 32.2657 33.3332 31.7005 33.3332 31.1111V9.66667L30.7777 4.96667C30.58 4.62425 30.2946 4.34076 29.9508 4.14544C29.6071 3.95013 29.2174 3.85006 28.8221 3.85556C28.4178 3.85877 28.0221 3.97221 27.6775 4.18366C27.3329 4.39512 27.0525 4.69657 26.8666 5.05556L24.4443 9.6889V31.1111C24.4443 31.7005 24.6785 32.2657 25.0952 32.6825C25.512 33.0992 26.0772 33.3333 26.6666 33.3333ZM26.6666 10.2222L28.8221 6.03334L31.111 10.2333V26.6667H26.6666V10.2222ZM26.6666 28.4778H31.111V31.1889H26.6666V28.4778Z" fill="black"/>
</svg>