<svg width="40" height="40" viewBox="0 0 40 40" fill="none" xmlns="http://www.w3.org/2000/svg">
<path d="M31.2 30.4H8.80002C7.44002 30.4 6.40002 29.36 6.40002 28V13.6C6.40002 12.24 7.44002 11.2 8.80002 11.2H13.6C13.76 11.2 14 11.04 14.08 10.96L14.96 9.20002C15.28 8.56002 16.08 8.08002 16.8 8.08002H23.2C23.92 8.08002 24.72 8.56002 25.04 9.20002L25.92 10.96C26 11.12 26.24 11.2 26.4 11.2H31.2C32.56 11.2 33.6 12.24 33.6 13.6V28C33.6 29.36 32.56 30.4 31.2 30.4ZM8.80002 12.8C8.32002 12.8 8.00002 13.12 8.00002 13.6V28C8.00002 28.48 8.32002 28.8 8.80002 28.8H31.2C31.68 28.8 32 28.48 32 28V13.6C32 13.12 31.68 12.8 31.2 12.8H26.4C25.68 12.8 24.88 12.32 24.56 11.68L23.68 9.92002C23.6 9.76002 23.36 9.60002 23.2 9.60002H16.8C16.64 9.60002 16.4 9.76002 16.32 9.84002L15.44 11.6C15.12 12.32 14.32 12.8 13.6 12.8H8.80002Z" fill="black"/>
<path d="M20 27.2C16 27.2 12.8 24 12.8 20C12.8 16 16 12.8 20 12.8C24 12.8 27.2001 16 27.2001 20C27.2001 24 24 27.2 20 27.2ZM20 14.4C16.88 14.4 14.4 16.88 14.4 20C14.4 23.12 16.88 25.6 20 25.6C23.12 25.6 25.6 23.12 25.6 20C25.6 16.88 23.12 14.4 20 14.4Z" fill="black"/>
<path d="M28 15.2C28.4418 15.2 28.8 14.8418 28.8 14.4C28.8 13.9581 28.4418 13.6 28 13.6C27.5581 13.6 27.2 13.9581 27.2 14.4C27.2 14.8418 27.5581 15.2 28 15.2Z" fill="black"/>
<path d="M9.59998 9.59998H12.8V10.4H9.59998V9.59998Z" fill="black"/>
<path d="M20 16.8V16C17.76 16 16 17.76 16 20H16.8C16.8 18.24 18.24 16.8 20 16.8Z" fill="black"/>
</svg>