<svg width="72" height="72" viewBox="0 0 72 72" fill="none" xmlns="http://www.w3.org/2000/svg">
<path d="M69.75 36L36 69.75L2.2511 36L36.0011 2.25L69.75 36Z" fill="black"/>
<g clip-path="url(#clip0)">
<path d="M45 39.375H42.75V37.125H45C45.6187 37.125 46.125 37.6313 46.125 38.25C46.125 38.8688 45.6187 39.375 45 39.375ZM45 43.875H42.75V41.625H45C45.6187 41.625 46.125 42.1312 46.125 42.75C46.125 43.3688 45.6187 43.875 45 43.875ZM38.25 36C37.0125 36 36 37.0125 36 38.25H33.75V42.75H36C36 43.9875 37.0125 45 38.25 45H41.625V36H38.25Z" fill="#FAFAFA"/>
<path d="M27 28.125C27 28.7437 27.5063 29.25 28.125 29.25H32.0625C32.9963 29.25 33.75 30.0038 33.75 30.9375C33.75 31.8713 32.9963 32.625 32.0625 32.625H30.375C27.8888 32.625 25.875 34.6388 25.875 37.125C25.875 39.6112 27.8888 41.625 30.375 41.625H32.625V39.375H30.375C29.1375 39.375 28.125 38.3625 28.125 37.125C28.125 35.8875 29.1375 34.875 30.375 34.875H32.0625C34.2338 34.875 36 33.1087 36 30.9375C36 28.7663 34.2338 27 32.0625 27H28.125C27.5063 27 27 27.5062 27 28.125Z" fill="#FAFAFA"/>
</g>
<defs>
<clipPath id="clip0">
<rect width="27" height="27" fill="white" transform="translate(22.5 22.5)"/>
</clipPath>
</defs>
</svg>