<svg width="72" height="72" viewBox="0 0 72 72" fill="none" xmlns="http://www.w3.org/2000/svg">
<path d="M69.75 36L36 69.75L2.2511 36L36.0011 2.25L69.75 36Z" fill="black"/>
<path d="M35.9259 34.963C37.4485 34.963 38.9087 35.5288 39.9853 36.5359C41.0619 37.543 41.6667 38.909 41.6667 40.3333V46.7778H39.3704V40.3333C39.3704 39.5114 39.0348 38.7206 38.432 38.1226C37.8293 37.5246 37.0051 37.1647 36.128 37.1165L35.9259 37.1111C35.0474 37.1111 34.202 37.4251 33.5628 37.9889C32.9235 38.5528 32.5388 39.3238 32.4872 40.1443L32.4815 40.3333V46.7778H30.1852V40.3333C30.1852 38.909 30.79 37.543 31.8666 36.5359C32.9432 35.5288 34.4034 34.963 35.9259 34.963ZM28.463 38.1852C28.7833 38.1852 29.0945 38.2206 29.393 38.2861C29.1967 38.8329 29.0804 39.4019 29.0474 39.9778L29.0371 40.3333V40.4257C28.9051 40.3815 28.7678 40.3527 28.6283 40.3398L28.463 40.3333C28.0349 40.3334 27.6221 40.4825 27.3052 40.7518C26.9882 41.0211 26.7899 41.3911 26.7488 41.7898L26.7408 41.9444V46.7778H24.4445V41.9444C24.4445 40.9474 24.8678 39.9912 25.6215 39.2862C26.3751 38.5812 27.3972 38.1852 28.463 38.1852V38.1852ZM43.3889 38.1852C44.4547 38.1852 45.4768 38.5812 46.2304 39.2862C46.984 39.9912 47.4074 40.9474 47.4074 41.9444V46.7778H45.1111V41.9444C45.1111 41.5439 44.9516 41.1578 44.6638 40.8613C44.3759 40.5649 43.9804 40.3793 43.5542 40.3409L43.3889 40.3333C43.188 40.3333 42.9951 40.3656 42.8148 40.4246V40.3333C42.8148 39.618 42.6908 38.9306 42.4601 38.2883C42.7642 38.2194 43.076 38.1848 43.3889 38.1852ZM28.463 31.7407C29.2242 31.7407 29.9543 32.0236 30.4926 32.5272C31.0309 33.0308 31.3333 33.7138 31.3333 34.4259C31.3333 35.1381 31.0309 35.8211 30.4926 36.3246C29.9543 36.8282 29.2242 37.1111 28.463 37.1111C27.7017 37.1111 26.9716 36.8282 26.4333 36.3246C25.895 35.8211 25.5926 35.1381 25.5926 34.4259C25.5926 33.7138 25.895 33.0308 26.4333 32.5272C26.9716 32.0236 27.7017 31.7407 28.463 31.7407V31.7407ZM43.3889 31.7407C44.1502 31.7407 44.8803 32.0236 45.4186 32.5272C45.9569 33.0308 46.2593 33.7138 46.2593 34.4259C46.2593 35.1381 45.9569 35.8211 45.4186 36.3246C44.8803 36.8282 44.1502 37.1111 43.3889 37.1111C42.6276 37.1111 41.8975 36.8282 41.3592 36.3246C40.8209 35.8211 40.5185 35.1381 40.5185 34.4259C40.5185 33.7138 40.8209 33.0308 41.3592 32.5272C41.8975 32.0236 42.6276 31.7407 43.3889 31.7407V31.7407ZM28.463 33.8889C28.3107 33.8889 28.1647 33.9455 28.057 34.0462C27.9494 34.1469 27.8889 34.2835 27.8889 34.4259C27.8889 34.5684 27.9494 34.705 28.057 34.8057C28.1647 34.9064 28.3107 34.963 28.463 34.963C28.6152 34.963 28.7612 34.9064 28.8689 34.8057C28.9766 34.705 29.0371 34.5684 29.0371 34.4259C29.0371 34.2835 28.9766 34.1469 28.8689 34.0462C28.7612 33.9455 28.6152 33.8889 28.463 33.8889ZM43.3889 33.8889C43.2366 33.8889 43.0906 33.9455 42.983 34.0462C42.8753 34.1469 42.8148 34.2835 42.8148 34.4259C42.8148 34.5684 42.8753 34.705 42.983 34.8057C43.0906 34.9064 43.2366 34.963 43.3889 34.963C43.5412 34.963 43.6872 34.9064 43.7948 34.8057C43.9025 34.705 43.963 34.5684 43.963 34.4259C43.963 34.2835 43.9025 34.1469 43.7948 34.0462C43.6872 33.9455 43.5412 33.8889 43.3889 33.8889ZM35.9259 25.2963C37.144 25.2963 38.3121 25.7489 39.1734 26.5547C40.0347 27.3604 40.5185 28.4531 40.5185 29.5926C40.5185 30.732 40.0347 31.8248 39.1734 32.6305C38.3121 33.4362 37.144 33.8889 35.9259 33.8889C34.7079 33.8889 33.5398 33.4362 32.6785 32.6305C31.8172 31.8248 31.3333 30.732 31.3333 29.5926C31.3333 28.4531 31.8172 27.3604 32.6785 26.5547C33.5398 25.7489 34.7079 25.2963 35.9259 25.2963V25.2963ZM35.9259 27.4444C35.3169 27.4444 34.7329 27.6708 34.3022 28.0736C33.8716 28.4765 33.6296 29.0229 33.6296 29.5926C33.6296 30.1623 33.8716 30.7087 34.3022 31.1116C34.7329 31.5144 35.3169 31.7407 35.9259 31.7407C36.535 31.7407 37.119 31.5144 37.5497 31.1116C37.9803 30.7087 38.2222 30.1623 38.2222 29.5926C38.2222 29.0229 37.9803 28.4765 37.5497 28.0736C37.119 27.6708 36.535 27.4444 35.9259 27.4444V27.4444Z" fill="#FAFAFA"/>
</svg>